/* XPM */
static char * gvdown_xpm[] = {
"64 64 116 2",
"  	c None",
". 	c #090606",
"+ 	c #820F0F",
"@ 	c #E61717",
"# 	c #C11414",
"$ 	c #450A0A",
"% 	c #E51616",
"& 	c #230808",
"* 	c #300909",
"= 	c #340909",
"- 	c #951010",
"; 	c #AC1212",
"> 	c #BB1313",
", 	c #840F0F",
"' 	c #110606",
") 	c #DB1616",
"! 	c #5A0C0C",
"~ 	c #690D0D",
"{ 	c #D01515",
"] 	c #0B0606",
"^ 	c #570C0C",
"/ 	c #120606",
"( 	c #1B0707",
"_ 	c #E11616",
": 	c #A61212",
"< 	c #931010",
"[ 	c #A21111",
"} 	c #961010",
"| 	c #1C0707",
"1 	c #E21616",
"2 	c #410A0A",
"3 	c #500B0B",
"4 	c #680D0D",
"5 	c #CB1414",
"6 	c #0E0606",
"7 	c #D61515",
"8 	c #B81313",
"9 	c #7A0E0E",
"0 	c #890F0F",
"a 	c #A71212",
"b 	c #290808",
"c 	c #360909",
"d 	c #E31616",
"e 	c #790E0E",
"f 	c #B31313",
"g 	c #6A0D0D",
"h 	c #C81414",
"i 	c #610C0C",
"j 	c #6F0D0D",
"k 	c #B91313",
"l 	c #3B0909",
"m 	c #DF1616",
"n 	c #160707",
"o 	c #1F0707",
"p 	c #E41616",
"q 	c #2B0808",
"r 	c #8B1010",
"s 	c #9A1111",
"t 	c #A81212",
"u 	c #7C0E0E",
"v 	c #0D0606",
"w 	c #D51515",
"x 	c #480A0A",
"y 	c #560B0B",
"z 	c #CA1414",
"A 	c #4C0B0B",
"B 	c #D11515",
"C 	c #100606",
"D 	c #D91616",
"E 	c #3D0A0A",
"F 	c #9C1111",
"G 	c #810F0F",
"H 	c #8F1010",
"I 	c #8D1010",
"J 	c #150606",
"K 	c #2F0808",
"L 	c #D71515",
"M 	c #0F0606",
"N 	c #5D0C0C",
"O 	c #BA1313",
"P 	c #C71414",
"Q 	c #AD1212",
"R 	c #760E0E",
"S 	c #9F1111",
"T 	c #210707",
"U 	c #1A0707",
"V 	c #240808",
"W 	c #170707",
"X 	c #A11111",
"Y 	c #AE1212",
"Z 	c #620C0C",
"` 	c #BF1414",
" .	c #4F0B0B",
"..	c #5C0C0C",
"+.	c #B21313",
"@.	c #130606",
"#.	c #DC1616",
"$.	c #800F0F",
"%.	c #880F0F",
"&.	c #730E0E",
"*.	c #0A0606",
"=.	c #CD1515",
"-.	c #430A0A",
";.	c #C31414",
">.	c #420A0A",
",.	c #CC1515",
"'.	c #911010",
").	c #850F0F",
"!.	c #D21515",
"~.	c #B51313",
"{.	c #CF1515",
"].	c #9B1111",
"^.	c #490A0A",
"/.	c #AF1212",
"(.	c #DD1616",
"_.	c #140606",
". . . . . . . . . . . . . . . . . . . . . . . . . . . . . . . . . . . . . . . . . . . . . . . . . . . . . . . . . . . . . . . . ",
". . . . . . . . . . . . . . . . . . . . . . . . . . . . . . . . . . . . . . . . . . . . . . . . . . . . . . . . . . . . . . . . ",
". . . . . . . . . . . . . . . . . . . . . . . . . . . . . . . . . . . . . . . . . . . . . . . . . . . . . . . . . . . . . . . . ",
". . . . . . . . . . . . . . . . . . . . . . . . . . . . . . . . . . . . . . . . . . . . . . . . . . . . . . . . . . . . . . . . ",
". . . . . . . . . . . . . . . . . . . . . . . . . . . . . . . . . . . . . . . . . . . . . . . . . . . . . . . . . . . . . . . . ",
". . . . . . . . . . . . . . . . . . . . . . . . . . . . . . . . . . . . . . . . . . . . . . . . . . . . . . . . . . . . . . . . ",
". . . . . . . . . . . . . . . . . . . . . . . . . . . . . . . . . . . . . . . . . . . . . . . . . . . . . . . . . . . . . . . . ",
". . . . . . . . . . . . . . . . . . . . . . . . . . . . . . . . . . . . . . . . . . . . . . . . . . . . . . . . . . . . . . . . ",
". . . . . . . . . . . . . . . . . . . . . . . . . . . . . . . . . . . . . . . . . . . . . . . . . . . . . . . . . . . . . . . . ",
". . . . . . . . . . . . . . . . . . . . . . . . . . . . . . . . . . . . . . . . . . . . . . . . . . . . . . . . . . . . . . . . ",
". . . . . . . . . . . . . . . . . . . . . . . . . . . . . . . . . . . . . . . . . . . . . . . . . . . . . . . . . . . . . . . . ",
". . . . . . . . . . . . . . . . . . . . . . . . . . . . . . . . . . . . . . . . . . . . . . . . . . . . . . . . . . . . . . . . ",
". . . . . . . . . . . + @ @ @ @ @ @ @ @ @ # . . . . . . . . . . . . . . . . . . . . $ @ @ @ @ @ @ @ @ @ % & . . . . . . . . . . ",
". . . . . . . . . . . * @ @ @ @ @ @ @ @ @ @ = . . . . . . . . . . . . . . . . . . . - @ @ @ @ @ @ @ @ @ ; . . . . . . . . . . . ",
". . . . . . . . . . . . > @ @ @ @ @ @ @ @ @ , . . . . . . . . . . . . . . . . . . ' ) @ @ @ @ @ @ @ @ @ ! . . . . . . . . . . . ",
". . . . . . . . . . . . ~ @ @ @ @ @ @ @ @ @ { ] . . . . . . . . . . . . . . . . . ^ @ @ @ @ @ @ @ @ @ ) / . . . . . . . . . . . ",
". . . . . . . . . . . . ( _ @ @ @ @ @ @ @ @ @ $ . . . . . . . . . . . . . . . . . : @ @ @ @ @ @ @ @ @ < . . . . . . . . . . . . ",
". . . . . . . . . . . . . [ @ @ @ @ @ @ @ @ @ } . . . . . . . . . . . . . . . . | 1 @ @ @ @ @ @ @ @ @ 2 . . . . . . . . . . . . ",
". . . . . . . . . . . . . 3 @ @ @ @ @ @ @ @ @ ) ' . . . . . . . . . . . . . . . 4 @ @ @ @ @ @ @ @ @ 5 . . . . . . . . . . . . . ",
". . . . . . . . . . . . . 6 7 @ @ @ @ @ @ @ @ @ ^ . . . . . . . . . . . . . . . 8 @ @ @ @ @ @ @ @ @ 9 . . . . . . . . . . . . . ",
". . . . . . . . . . . . . . 0 @ @ @ @ @ @ @ @ @ a . . . . . . . . . . . . . . b @ @ @ @ @ @ @ @ @ @ b . . . . . . . . . . . . . ",
". . . . . . . . . . . . . . c @ @ @ @ @ @ @ @ @ d | . . . . . . . . . . . . . e @ @ @ @ @ @ @ @ @ f . . . . . . . . . . . . . . ",
". . . . . . . . . . . . . . . # @ @ @ @ @ @ @ @ @ g . . . . . . . . . . . . . h @ @ @ @ @ @ @ @ @ i . . . . . . . . . . . . . . ",
". . . . . . . . . . . . . . . j @ @ @ @ @ @ @ @ @ k . . . . . . . . . . . . l @ @ @ @ @ @ @ @ @ m n . . . . . . . . . . . . . . ",
". . . . . . . . . . . . . . . o p @ @ @ @ @ @ @ @ @ q . . . . . . . . . . . r @ @ @ @ @ @ @ @ @ s . . . . . . . . . . . . . . . ",
". . . . . . . . . . . . . . . . t @ @ @ @ @ @ @ @ @ u . . . . . . . . . . v w @ @ @ @ @ @ @ @ @ x . . . . . . . . . . . . . . . ",
". . . . . . . . . . . . . . . . y @ @ @ @ @ @ @ @ @ z . . . . . . . . . . A @ @ @ @ @ @ @ @ @ B ] . . . . . . . . . . . . . . . ",
". . . . . . . . . . . . . . . . C D @ @ @ @ @ @ @ @ @ E . . . . . . . . . F @ @ @ @ @ @ @ @ @ G . . . . . . . . . . . . . . . . ",
". . . . . . . . . . . . . . . . . H @ @ @ @ @ @ @ @ @ I . . . . . . . . J m @ @ @ @ @ @ @ @ @ K . . . . . . . . . . . . . . . . ",
". . . . . . . . . . . . . . . . . E @ @ @ @ @ @ @ @ @ L M . . . . . . . N @ @ @ @ @ @ @ @ @ O . . . . . . . . . . . . . . . . . ",
". . . . . . . . . . . . . . . . . . P @ @ @ @ @ @ @ @ @ 3 . . . . . . . Q @ @ @ @ @ @ @ @ @ 4 . . . . . . . . . . . . . . . . . ",
". . . . . . . . . . . . . . . . . . R @ @ @ @ @ @ @ @ @ S . . . . . . T p @ @ @ @ @ @ @ @ _ U . . . . . . . . . . . . . . . . . ",
". . . . . . . . . . . . . . . . . . V % @ @ @ @ @ @ @ @ m W . . . . . j @ @ @ @ @ @ @ @ @ X . . . . . . . . . . . . . . . . . . ",
". . . . . . . . . . . . . . . . . . . Y @ @ @ @ @ @ @ @ @ Z . . . . . ` @ @ @ @ @ @ @ @ @  .. . . . . . . . . . . . . . . . . . ",
". . . . . . . . . . . . . . . . . . . ..@ @ @ @ @ @ @ @ @ +.. . . . * @ @ @ @ @ @ @ @ @ w 6 . . . . . . . . . . . . . . . . . . ",
". . . . . . . . . . . . . . . . . . . @.#.@ @ @ @ @ @ @ @ % V . . . $.@ @ @ @ @ @ @ @ @ %.. . . . . . . . . . . . . . . . . . . ",
". . . . . . . . . . . . . . . . . . . . - @ @ @ @ @ @ @ @ @ &.. . *.=.@ @ @ @ @ @ @ @ @ c . . . . . . . . . . . . . . . . . . . ",
". . . . . . . . . . . . . . . . . . . . -.@ @ @ @ @ @ @ @ @ ;.. . >.@ @ @ @ @ @ @ @ @ # . . . . . . . . . . . . . . . . . . . . ",
". . . . . . . . . . . . . . . . . . . . *.,.@ @ @ @ @ @ @ @ @ c . '.@ @ @ @ @ @ @ @ @ j . . . . . . . . . . . . . . . . . . . . ",
". . . . . . . . . . . . . . . . . . . . . u @ @ @ @ @ @ @ @ @ ).M D @ @ @ @ @ @ @ @ p o . . . . . . . . . . . . . . . . . . . . ",
". . . . . . . . . . . . . . . . . . . . . b @ @ @ @ @ @ @ @ @ !.y @ @ @ @ @ @ @ @ @ t . . . . . . . . . . . . . . . . . . . . . ",
". . . . . . . . . . . . . . . . . . . . . . ~.@ @ @ @ @ @ @ @ @ {.@ @ @ @ @ @ @ @ @ y . . . . . . . . . . . . . . . . . . . . . ",
". . . . . . . . . . . . . . . . . . . . . . Z @ @ @ @ @ @ @ @ @ @ @ @ @ @ @ @ @ @ D C . . . . . . . . . . . . . . . . . . . . . ",
". . . . . . . . . . . . . . . . . . . . . . n m @ @ @ @ @ @ @ @ @ @ @ @ @ @ @ @ @ H . . . . . . . . . . . . . . . . . . . . . . ",
". . . . . . . . . . . . . . . . . . . . . . . ].@ @ @ @ @ @ @ @ @ @ @ @ @ @ @ @ @ E . . . . . . . . . . . . . . . . . . . . . . ",
". . . . . . . . . . . . . . . . . . . . . . . ^.@ @ @ @ @ @ @ @ @ @ @ @ @ @ @ @ P . . . . . . . . . . . . . . . . . . . . . . . ",
". . . . . . . . . . . . . . . . . . . . . . . ] B @ @ @ @ @ @ @ @ @ @ @ @ @ @ @ R . . . . . . . . . . . . . . . . . . . . . . . ",
". . . . . . . . . . . . . . . . . . . . . . . . + @ @ @ @ @ @ @ @ @ @ @ @ @ @ % V . . . . . . . . . . . . . . . . . . . . . . . ",
". . . . . . . . . . . . . . . . . . . . . . . . * @ @ @ @ @ @ @ @ @ @ @ @ @ @ /.. . . . . . . . . . . . . . . . . . . . . . . . ",
". . . . . . . . . . . . . . . . . . . . . . . . . > @ @ @ @ @ @ @ @ @ @ @ @ @ N . . . . . . . . . . . . . . . . . . . . . . . . ",
". . . . . . . . . . . . . . . . . . . . . . . . . ~ @ @ @ @ @ @ @ @ @ @ @ @ (._.. . . . . . . . . . . . . . . . . . . . . . . . ",
". . . . . . . . . . . . . . . . . . . . . . . . . ( _ @ @ @ @ @ @ @ @ @ @ @ } . . . . . . . . . . . . . . . . . . . . . . . . . ",
". . . . . . . . . . . . . . . . . . . . . . . . . . . . . . . . . . . . . . . . . . . . . . . . . . . . . . . . . . . . . . . . ",
". . . . . . . . . . . . . . . . . . . . . . . . . . . . . . . . . . . . . . . . . . . . . . . . . . . . . . . . . . . . . . . . ",
". . . . . . . . . . . . . . . . . . . . . . . . . . . . . . . . . . . . . . . . . . . . . . . . . . . . . . . . . . . . . . . . ",
". . . . . . . . . . . . . . . . . . . . . . . . . . . . . . . . . . . . . . . . . . . . . . . . . . . . . . . . . . . . . . . . ",
". . . . . . . . . . . . . . . . . . . . . . . . . . . . . . . . . . . . . . . . . . . . . . . . . . . . . . . . . . . . . . . . ",
". . . . . . . . . . . . . . . . . . . . . . . . . . . . . . . . . . . . . . . . . . . . . . . . . . . . . . . . . . . . . . . . ",
". . . . . . . . . . . . . . . . . . . . . . . . . . . . . . . . . . . . . . . . . . . . . . . . . . . . . . . . . . . . . . . . ",
". . . . . . . . . . . . . . . . . . . . . . . . . . . . . . . . . . . . . . . . . . . . . . . . . . . . . . . . . . . . . . . . ",
". . . . . . . . . . . . . . . . . . . . . . . . . . . . . . . . . . . . . . . . . . . . . . . . . . . . . . . . . . . . . . . . ",
". . . . . . . . . . . . . . . . . . . . . . . . . . . . . . . . . . . . . . . . . . . . . . . . . . . . . . . . . . . . . . . . ",
". . . . . . . . . . . . . . . . . . . . . . . . . . . . . . . . . . . . . . . . . . . . . . . . . . . . . . . . . . . . . . . . ",
". . . . . . . . . . . . . . . . . . . . . . . . . . . . . . . . . . . . . . . . . . . . . . . . . . . . . . . . . . . . . . . . "};
